<svg xmlns="http://www.w3.org/2000/svg" width="193.253" height="64.021" viewBox="0 0 193.253 64.021">
  <defs>
    <style>
      .cls-1 {
        fill: #221f1f;
      }
    </style>
  </defs>
  <g id="Group_140" data-name="Group 140" transform="translate(-69.572 -43.428)">
    <path id="Path_30" data-name="Path 30" class="cls-1" d="M98.725-1294.49a.144.144,0,0,1,.105.21.329.329,0,0,1-.267.22,1.842,1.842,0,0,1,.162-.43m-5.992,32.48a.136.136,0,0,1-.059-.11c.035-.15-.056-.21-.275-.21v.32Zm0-.76v-.17c0-.11-.059-.14-.174-.11a1.185,1.185,0,0,0-.16.11c.039.11.146.17.334.17m.918,1.35c.07-.07.115-.12.115-.15a1.29,1.29,0,0,1-.115-.12.886.886,0,0,0,.115-.32c.041-.21,0-.32-.115-.32a1.448,1.448,0,0,0-.592.32c-.295.22-.545.41-.768.59Zm-4.352-9.8c.063-.04.143-.07.215-.11a.672.672,0,0,0-.435-.33Zm-1.092-21.8a.342.342,0,0,1-.058-.17c0-.07-.069-.1-.217-.1v.27Zm-1.638,28.61v-.16c0-.12-.051-.16-.166-.16Zm-1.526-26.49v-.44h-.431v.28Zm-.6,26.33a.962.962,0,0,0,.332-.06c0-.14-.16-.23-.486-.27Zm2.244-4.97v-1.05c0-.38.014-.8.049-1.24a3.652,3.652,0,0,0-.049-.75H86.4c-.145-1.46-.291-2.91-.434-4.36l-.324-.11-.17-1.04a2.977,2.977,0,0,1,.117-.49,1.032,1.032,0,0,0,.053-.55l-.438-.92v-1.69l-.271-.27v-.34c0-.28.025-.73.076-1.33a4.061,4.061,0,0,0,.031-1.06l-.328-.71H84.44a1.526,1.526,0,0,0,0,.55c0,.07-.106.18-.319.32v.28c.286.07.4.35.319.81l-.319.55v1.64a6.216,6.216,0,0,1-.162,1.2,17.568,17.568,0,0,0-.386,2.12v1.36l-.327.5v1.79l-.486.71c.031.55.043.98.043,1.31a3.624,3.624,0,0,1-.158.98l-.326.11c.076.03.125.33.162.87a.951.951,0,0,0,.765.98,1.649,1.649,0,0,0,.434-.06,1.652,1.652,0,0,1,.76-.11l.5.44a2.113,2.113,0,0,0,.924-.19c.511-.16.787-.25.824-.25m-4.143-17.16c.028-.19.047-.29.047-.32-.033-.12-.125-.15-.269-.12-.147.07-.162.17-.059.28a.449.449,0,0,0,.281.16m-.822-6a2.476,2.476,0,0,0,.16-.65c0-.22-.09-.29-.267-.22l-.16.28c-.081-.04-.131-.04-.166,0v.59Zm-.433,22.08c-.038-.18-.094-.27-.166-.27Zm0-19.19v-.21c-.038-.08-.094-.08-.166,0v.49l-.268.16a.57.57,0,0,0,.162.27,1.425,1.425,0,0,0,.324-.6.145.145,0,0,1-.052-.11m7.084,37.88a21.3,21.3,0,0,1-2.454-.19,18.635,18.635,0,0,0-1.908-.19,5.328,5.328,0,0,0-1.033.06,5.858,5.858,0,0,0-1.039.16,6.124,6.124,0,0,1-1.258.16l.174-.32h.6v-.28l.761-.32.106-.44a2.328,2.328,0,0,0,.656,0c.184-.14.379-.31.6-.5l.548.34a2.563,2.563,0,0,1,1.247-.34l.6.61a1.331,1.331,0,0,1,1.039-.11l.434.59c.289.16.6.3.928.45Zm-8.018-29.65a.355.355,0,0,0,.164-.06c-.1-.14-.193-.21-.266-.21Zm.5,7.09a.929.929,0,0,0-.6.6,2.4,2.4,0,0,1-.33.17.894.894,0,0,0,.166.26c.178-.18.362-.36.543-.54.078-.15.143-.31.223-.49m-.5-16.08c0-.26-.029-.42-.1-.49a1.162,1.162,0,0,1-.494,0v.49a4.769,4.769,0,0,1,.539.22.568.568,0,0,1,.057-.22m-1.465,38.04c.072-.29-.019-.43-.275-.43v.21a2.058,2.058,0,0,0,.275.22m0-9.97v-.27H78.4Zm-.709,3.65a.332.332,0,0,1-.057-.22c0-.07-.1-.11-.267-.11v.33Zm-.219,6.15q-.056-.045,0-.21c.036-.22-.062-.31-.273-.27l-.164.22v.26Zm-.713-12.8c.375,0,.549-.05.549-.16,0-.08-.131-.19-.384-.33s-.418-.24-.491-.28Zm-.326,4.53c.143.03.2-.02.166-.17a.376.376,0,0,0-.326-.28Zm-.927,4.79-.266-.11.162.28a2.2,2.2,0,0,0,.381-.06.553.553,0,0,0-.277-.11m-.432,2.29c0-.22-.057-.33-.164-.33Zm-.272-7.36a1.52,1.52,0,0,1-.164-.32Zm21.475,8.4-.109,1.63c-1.453-.22-2.643-.38-3.537-.49a22.423,22.423,0,0,0-2.674-.16,8.2,8.2,0,0,0-1.145.05c-.115-.29-.234-.62-.357-.98a2.133,2.133,0,0,1-.141-.99.719.719,0,0,0,.111-.27,2.846,2.846,0,0,0,.167-.43l-.278-.17v-1.03a3.82,3.82,0,0,1-.049-.77c.035-.61.049-1.06.049-1.35l-.326-.17c.037-.55.059-.96.059-1.26a1.837,1.837,0,0,0-.059-.54l-.268-.43v-1.36l-.275-.12v-.32l-.166-1.64a.684.684,0,0,1-.654.11,1.3,1.3,0,0,1-.321-.32c-.037-.04-.107-.13-.222-.28a3.335,3.335,0,0,0-.653-.05,6.567,6.567,0,0,0-.98.08c-.4.06-.621.08-.65.08a3.167,3.167,0,0,1-.606-.11l-.434-.43a1.1,1.1,0,0,1-.271.05v.22q-.39.27-1.363-.27l-.16.43a2.532,2.532,0,0,0,.16.6l-.326.17a1.489,1.489,0,0,0,.107.38.751.751,0,0,1,.059.49l-.438.33v2.93a1.089,1.089,0,0,1-.162.55c-.186.04-.346.08-.5.11a.646.646,0,0,1,.164.49c0,.22-.047.37-.164.44l.326.11c-.031.4-.076.82-.133,1.25a7.559,7.559,0,0,1-.295,1.36c.1,0,.161.04.161.11-.036.11-.088.16-.161.16a9.064,9.064,0,0,1-.1,1.37c-.08.47-.152.93-.225,1.36H78.286l-.108-.49a.622.622,0,0,0-.543.17.738.738,0,0,1-.113.16,2.566,2.566,0,0,1-1.061-.2,4.588,4.588,0,0,0-.9-.24l-.164.44q-.489-.06-.545,0v-.76l-.328-.33c-.072,0-.137.05-.219.16a.611.611,0,0,1-.051.17,6.331,6.331,0,0,0-1.256,0,2.809,2.809,0,0,0,.272-.88c0-.18-.129-.34-.379-.49a5.483,5.483,0,0,1,.6-1.47,1.7,1.7,0,0,1-.16-.49v-.11l.49-.6c.033-.4.052-.67.052-.81a.593.593,0,0,1,.383-.55l-.328-.44a.824.824,0,0,0,.168-.38,1.206,1.206,0,0,1,.16-.44l.434-.1-.332-.93.5-1.63.113-.33v-.87l.432.16a2.108,2.108,0,0,1-.272-.93,4.639,4.639,0,0,0,.272-1.2v-.27a.076.076,0,0,0-.108,0v-.32l.272-.34a.549.549,0,0,1-.106-.21.763.763,0,0,1-.058-.49c.4-.29.672-.49.816-.6-.1-.26-.22-.53-.324-.82,0-.14.145-.27.441-.38a.916.916,0,0,1-.166-.33c-.044-.04-.13-.12-.275-.27a2.642,2.642,0,0,1,.275-.98,3.815,3.815,0,0,1,.327-.87l-.278-.71.547-.33a9.134,9.134,0,0,1-.111-1.46l.271-.17v-.44c.143-.14.256-.25.326-.33a.887.887,0,0,0,.276-.43,4.631,4.631,0,0,0,.113-1.09,6.031,6.031,0,0,0-.164-1.15,6.187,6.187,0,0,1-.166-1.19,2.863,2.863,0,0,1,.057-.61l.492-.32a3.248,3.248,0,0,1-.168-.76,4.833,4.833,0,0,1,.109-.55c.071-.22.2-.54.383-.98.035-.07-.035-.16-.219-.27v-.77l.438-.27a2.773,2.773,0,0,0-.16-.54,1.228,1.228,0,0,1-.059-.83c0-.1.09-.21.268-.32a2.7,2.7,0,0,0,.441-.27,5.148,5.148,0,0,1-.166-1.2,6.642,6.642,0,0,1,.166-1.36,12.469,12.469,0,0,1-.107-1.32,1.509,1.509,0,0,1,.107-.64l.6-.28-.6-.49c.143-.4.289-.8.432-1.2a2,2,0,0,1-.053-.38,1.621,1.621,0,0,1-.059-.66l.112-.48h.326a6.2,6.2,0,0,1-.16-1.15h1.529c.033-.21.119-.32.272-.32l1.791.32a2.7,2.7,0,0,1,.931-.21c.289.1.6.21.928.32l.107-.43c.4.03.766.08,1.1.13a1.935,1.935,0,0,0,.869-.02l.326-.28c.071,0,.4.07.977.19a2.914,2.914,0,0,0,1.256.09l.433-.44a30.768,30.768,0,0,0,.352,3.89q.369,2.535.9,4.83c-.1.07-.158.27-.158.6,0,.14.039.46.11.96.076.48.119.84.16,1.05-.213.11-.33.2-.33.27l.666.6a1.6,1.6,0,0,1,.1.61v1.03l.49,1.37c-.072.54-.13,1.09-.16,1.63l.268.16a3.361,3.361,0,0,1,.16,1.03,4.513,4.513,0,0,0,.174,1.1l.265.92a1.668,1.668,0,0,1-.105.28c-.035.36-.059.56-.059.6l-.435.17a1.355,1.355,0,0,1,0,.59,1.332,1.332,0,0,0,.334-.49H93l.327,1.36-.491.6c-.289.14-.578.29-.869.44v.49l1.465-.16c.117.43.221.89.336,1.39a1.518,1.518,0,0,1,0,1c-.08.08-.123.11-.164.11a3.289,3.289,0,0,1-.438.16.729.729,0,0,0-.105.28,1.028,1.028,0,0,1-.061.21c.073,0,.131.11.166.33l1.036.11c-.037.22-.071.42-.108.6a2.364,2.364,0,0,0,.2.85,9.4,9.4,0,0,0,.4.95v1.04l.279.32v.49l.158,1.91a.835.835,0,0,0-.216.17,1,1,0,0,1-.1.16,13.148,13.148,0,0,0-1.809,0v.43c.073,0,.225.15.432.44.19.03.291.02.336-.05.072-.15.125-.22.166-.22h1.361a4.419,4.419,0,0,0,.047,1.12,10.519,10.519,0,0,0,.383,1.55l.33.32a.642.642,0,0,1-.105.5.81.81,0,0,0-.118.11l.5,1.03v1.25l.326.27a.969.969,0,0,1-.059.55,1.879,1.879,0,0,0-.107.55Z" transform="translate(0 1343.059)"/>
    <path id="Path_31" data-name="Path 31" class="cls-1" d="M116.706-1260.1a.358.358,0,0,1-.049-.22c0-.12-.092-.17-.281-.17v.39Zm-2.887-22.35v-.49a.256.256,0,0,0-.271-.17v.66Zm-5.5-4.41a2.925,2.925,0,0,1-.281-.12.383.383,0,0,1,.281-.21Zm13.295,29.37v1.48c0,1.26-.051,2.5-.164,3.7l-1.09-.49-.1.33h-.774l-.16-.33h-1.416a.3.3,0,0,1-.109-.16c-.041-.12-.147-.15-.33-.12v.28c-.508-.04-.891-.05-1.137-.05a2.744,2.744,0,0,0-.658.05v.33h-1.031a.525.525,0,0,0-.383-.33c.035-.04.049-.14.049-.33a1.534,1.534,0,0,0-.049-.27,1.213,1.213,0,0,1,.492-.33l1.363.28v-.61h-.5v-.48c-.07-.08-.351-.09-.863-.06v-3.7h-.492v-.23h.383l.109-5.61c.174-.03.289-.05.318-.05.114-.08.114-.14,0-.22h-.318c-.076-.58-.131-1.23-.168-1.97-.037-.71-.092-1.39-.166-2.01h.652v-.27l-.652-.33v-.76c.109-.26.225-.51.334-.76v-1.04a.825.825,0,0,0-.492-.82v-.32h.492v-2.73a11.292,11.292,0,0,0-.25-2.15,10.888,10.888,0,0,1-.242-1.5,1.671,1.671,0,0,0,.158-.6h-.6v-.66c-.7-.14-1.062-.22-1.1-.22-.219,0-.633.3-1.264.88l-.424.27v1.03h-.322l-.162,8.73h.22l-.058.81c-.178.44-.162.67.058.71a.85.85,0,0,1-.22.17c0,.61.027,1.3.076,2.07s.086,1.19.086,1.31l.494.32-.494.11v.82l-.328.11a.627.627,0,0,0,.117.44c.062.06.139.14.211.21v1.53h.217a1.231,1.231,0,0,1-.217.1v1.1a.158.158,0,0,0,.107-.05,1.679,1.679,0,0,1,.215.49,1.684,1.684,0,0,1-.264.15,2.868,2.868,0,0,1-.058.34h.217l-.217,1.24h.322v2.24l-.484.17v.21a.4.4,0,0,0,.162.06c.293.14.455.27.494.38a1.831,1.831,0,0,1-.059.74c-.072.27-.164.57-.283.9-.566.11-1.152.2-1.771.3a2.485,2.485,0,0,1-1.088.02c-.045-.21-.16-.32-.342-.32v.32h-1.527v.33H105.1v-.33a1.292,1.292,0,0,0-.6.11c-.1.07-.207.15-.32.22a.8.8,0,0,0-.272-.33v-4.85a.606.606,0,0,0,.219-.05,2.049,2.049,0,0,1,.053-.33l-.606-.28v-.92h.334v-1.86c-.222-.1-.334-.19-.334-.27l.442-.16v-.06c-.073-.14-.164-.18-.268-.1a5.493,5.493,0,0,0,.1-1.2v-.82a6.619,6.619,0,0,1,.164-1.64c-.186-.1-.268-.21-.268-.32h.268v-.54c-.034-.15-.131-.17-.268-.06v-.55c.031-.14.121-.16.268-.05v-.54c-.034-.15-.131-.17-.268-.06-.049-.73-.062-1.28-.062-1.69a1.8,1.8,0,0,1,.33-1.25h.218a.237.237,0,0,1-.054-.16H103.9c-.039-.04-.039-.22,0-.55l-.334-.22a.5.5,0,0,1,.334-.44,1.64,1.64,0,0,0-.334-1.68v-.44c.256-.15.381-.29.381-.44a5.256,5.256,0,0,1-.381-.65v-.77l.606-.59a.666.666,0,0,0-.328-.11,2.544,2.544,0,0,1-.278-.05.93.93,0,0,1,.334-.49,5.01,5.01,0,0,1-.275-1.43c-.037-.54-.059-1.21-.059-2.01v-1.14a.933.933,0,0,1-.107-.17,1.907,1.907,0,0,1,.281-.11v-1.25l-.281-.17a1.2,1.2,0,0,1,.281-.11,6.307,6.307,0,0,1-.281-1.68,5.617,5.617,0,0,1,.281-1.53.679.679,0,0,1-.281-.43q2.235.21,3.273.24c.69.02,1.418.02,2.184.02.072-.39.129-.59.166-.59a.441.441,0,0,1,.377.14c.107.19.18.3.219.3h.761a.373.373,0,0,0,.059.21.581.581,0,0,1,.269.11,11.3,11.3,0,0,1-.058,1.26,4.275,4.275,0,0,1-.594,1.36c.213-.07.432-.14.652-.22a1.308,1.308,0,0,0,.409-.74,3.561,3.561,0,0,0,.187-.79h.276v-.54a1.593,1.593,0,0,1,.652,0v-.33h.6v-.32h1.2v-.33c.177,0,.507-.02.974-.06s.842-.05,1.094-.05a7,7,0,0,1,1.035.11v.33a1.151,1.151,0,0,1,.6,0l.49.49H119l.656.92h.278a1.406,1.406,0,0,0,0,.6l.591.27v.66h.325a1.141,1.141,0,0,1-.325.16v.43h.325v.6h.33a1.915,1.915,0,0,1-.11.82c-.109.37-.179.6-.22.71s.023.22.17.33v6.37h.267v1.1l-.437.16a3.088,3.088,0,0,0-.049.6,3.087,3.087,0,0,0,.049.6c.041.04.111.04.22,0a.554.554,0,0,1,.11.16h-.436l-.219.16a.482.482,0,0,0,.325.33v.88h.33a14.075,14.075,0,0,1,.162,2.06c0,.41-.008.8-.028,1.2s-.027.79-.027,1.15a5.46,5.46,0,0,0,.164,1.58c-.252.14-.49.29-.707.43a1.072,1.072,0,0,0,0,.49l.276.17v.6h.267v.27c-.076.04-.139.08-.217.12.078.46.141.94.217,1.4a1.072,1.072,0,0,0-.267.66h.267v1.8h.328a.653.653,0,0,1-.164.38.979.979,0,0,0-.164.6Z" transform="translate(0 1343.059)"/>
    <path id="Path_32" data-name="Path 32" class="cls-1" d="M142-1278.75a.189.189,0,0,1-.057-.15c0-.08-.1-.12-.274-.12v.27Zm-.932.38a.3.3,0,0,1-.056-.21c0-.11-.082-.17-.268-.17v.38Zm-.923-2.78c-.041-.02-.053-.08-.053-.15s-.078-.11-.217-.11v.26Zm-1.793,14.83a.725.725,0,0,0,.1.17,1.527,1.527,0,0,1-.265.16v-.22c0-.07.049-.11.166-.11m1.523-2.67-.166-.33h-.768v-.27a2.944,2.944,0,0,0-.589-.05,3.7,3.7,0,0,1-.659.05,3.473,3.473,0,0,0,.327.38c.111.07.166.15.166.22a3.678,3.678,0,0,1-.279.6h-.323v.6l-.924.33c-.045-.22-.129-.33-.277-.33v2.13h-.327v.27h.327v1.85h-.327v.93a.277.277,0,0,0,.219,0,.664.664,0,0,1,.108.28h-.327v.32l.6.27c0,.07-.094.18-.277.32a7.952,7.952,0,0,0,.086,1.45,5.979,5.979,0,0,0,.515,1.28h.268a.207.207,0,0,1,.059.16c0,.12.093.15.273.12v-.6h.928l.269-.87h.326v-.6h.329v-1.26a.923.923,0,0,1-.329-.27c.074-.04.169-.09.276-.16a2.47,2.47,0,0,1,.053-.44c-.215,0-.329-.13-.329-.39v-.54a1.367,1.367,0,0,0,.276-.17,2.393,2.393,0,0,1,.053-.43h-.329v-2.18a.265.265,0,0,0-.214,0c-.043,0-.071-.07-.112-.21l.655-.33v-.6a.428.428,0,0,1-.381-.49,1.232,1.232,0,0,1,.052-.39,1.63,1.63,0,0,0,.169-.37c.036-.12.232-.21.6-.28m6.806,14.5-.482.16c-.109.47-.209.94-.281,1.42h-.439l-.159.33a2.2,2.2,0,0,1-.756,0v-.66h-.6l-.167.33h-.6v.33c-.113,0-.163-.12-.163-.33h-.438v.33h-.487v-.33c-.654.04-1.168.06-1.529.06a1.979,1.979,0,0,1-.6-.06c-.078-.22-.166-.33-.273-.33v-.87h-.433v.27h-.663v.6h-.539l-.381.66c-.33-.07-.507-.07-.548,0v.22a4.065,4.065,0,0,1-1.03.11c-.222,0-.571-.02-1.041-.06s-.8-.05-.982-.05v.16c0,.11-.049.16-.164.16v-.32H132.9c-.473-.37-.921-.72-1.337-1.07a3.518,3.518,0,0,1-.631-.57v-.49l-.649-.44v-.92h-.275l-.325-1.15H129.4l.275-.16a6.679,6.679,0,0,1-.22-1.39c-.042-.57-.055-1.17-.055-1.83h-.328c.109-.03.216-.07.328-.1v-.81a6.236,6.236,0,0,1,.055-.87,3.5,3.5,0,0,0-.055-.73h-.328v-.54a1.782,1.782,0,0,1-.273-.16h.6v-2.98l.44-.22v-1.03l.322-.1v-.82l.545-.43a5.039,5.039,0,0,0,.115-.79,1.62,1.62,0,0,1,.269-.89.421.421,0,0,1,.382-.16.843.843,0,0,0,.492-.11l.6-.92a1.409,1.409,0,0,0,.594,0l.334-.65h.592l.336-.61a1.9,1.9,0,0,1,.758-.1,1.728,1.728,0,0,0,.761-.12l.272-.65a1.378,1.378,0,0,0,.6,0v-.6a1.136,1.136,0,0,0,.6,0,.878.878,0,0,1,.384-.6,1.741,1.741,0,0,1,.552-.32v-.27h.261a4.458,4.458,0,0,1,0-.93c.223.1.442.22.663.33a5.661,5.661,0,0,1-.169-1.04,4.925,4.925,0,0,0-.166-1.42h.6v-.27h.331c-.113-.11-.221-.22-.331-.32v.32a1.844,1.844,0,0,0-.6,0v-.59a.61.61,0,0,0-.328-.61v-.32l-1.2-.34c-.035.23-.123.34-.271.34v-.34a.511.511,0,0,0-.315.34,5.294,5.294,0,0,0-1.155,0,2.828,2.828,0,0,0-.054.54c0,.15-.112.26-.327.32v.34a.549.549,0,0,1,.327.59h-.327v1.26a2.072,2.072,0,0,0,.046.54.867.867,0,0,1,.281.66h-.327v1.15c-.181.11-.274.21-.274.32H133.5a3.921,3.921,0,0,0-.172.6c-.357-.07-.613-.12-.756-.15-.041-.21-.081-.41-.111-.62a3.276,3.276,0,0,0-.655-.11,5.379,5.379,0,0,0-.978.14,5.529,5.529,0,0,1-.982.14,1.17,1.17,0,0,1-.6-.11c-.078-.19-.169-.28-.278-.28,0-.58-.014-1.18-.057-1.81s-.068-1.24-.107-1.87a7.164,7.164,0,0,1,.164-1.65h.278v-.93h.159c.071-.11.149-.22.225-.33v-.22a.971.971,0,0,1,.375-.82,1.61,1.61,0,0,1-.16-.43,2.857,2.857,0,0,0,.435-.16v-.44l.922-.93h.442a.323.323,0,0,0,.107-.21,3.3,3.3,0,0,1,.054-.44h.923v-.27l1.2-.27v-.34h.926c.041-.22.1-.33.166-.33a1.689,1.689,0,0,1,.709.16,1.342,1.342,0,0,0,.654.17v-.33h4.094v.33h1.192v.34a4.074,4.074,0,0,0,.494.05,2.727,2.727,0,0,1,.755.22c.082.24.131.43.164.54a.366.366,0,0,0,.277.22h.762l.274,1.09a2.023,2.023,0,0,1,.649.44v.76l.276.16v2.08h.6c-.148.61-.231,1.01-.275,1.19a7.416,7.416,0,0,0-.051.99h.326a2.558,2.558,0,0,1-.16.87,2.48,2.48,0,0,0-.166.92h.326l-.16,4.42.441.11v.43a3.792,3.792,0,0,1-.109.65l-.332.17a.525.525,0,0,0,.108.38c.07.07.149.15.224.22a8.338,8.338,0,0,1,.053,1.03c0,.4-.015.76-.028,1.07s-.025.57-.025.79h-.332a.886.886,0,0,0,.108.49c.07.07.149.14.224.22a10,10,0,0,1,.109,1.2c0,.43-.021.9-.056,1.41s-.053.8-.053.87a1.543,1.543,0,0,0-.274.12,4.256,4.256,0,0,0,.274.82h-.332v1.03h.332v.65h.323a4.6,4.6,0,0,1,.1,1.14,14.812,14.812,0,0,1-.1,1.48,13.922,13.922,0,0,0-.107,1.53,6.232,6.232,0,0,0,.107.97h.268Z" transform="translate(0 1343.059)"/>
    <path id="Path_33" data-name="Path 33" class="cls-1" d="M192.842-1295.26a.55.55,0,0,1-.217-.05.2.2,0,0,1,.217-.16Zm-.16-3.32a1.893,1.893,0,0,1-.276-.12c.071-.28.165-.45.276-.48.037.07.072.14.107.22a1.329,1.329,0,0,1-.107.38m-.545-.33-.274.6h-.378l.49-.44c-.112-.1-.166-.17-.166-.21a.4.4,0,0,1,.054-.22.169.169,0,0,1,.165.11c.039.11.066.16.109.16m-2.131-.71a2.827,2.827,0,0,1-.1.28.413.413,0,0,1-.053-.17c0-.11.053-.14.158-.11m.875,49.33h-1.365v-.44h.166v-.11c.178.04.383.07.6.11a1.857,1.857,0,0,1,.11-.82l.322.16c.072.55.131.91.164,1.1m-1.746-46.93-.1,2.13a.516.516,0,0,1,.1.27,1.5,1.5,0,0,1,.115.54c0,.26-.115.35-.336.27l-.265-.55a1.076,1.076,0,0,0,.218-.32.158.158,0,0,1-.117-.05.383.383,0,0,0-.045-.16.426.426,0,0,1-.275,0,.837.837,0,0,0,.219-.61l-.6-.43v-.22a3.126,3.126,0,0,1-.879,0l-.7-.37,1.248-.23,1.2-.27Zm-4.035,37.17h.217a.7.7,0,0,0-.325-.27Zm.441-27.58a.449.449,0,0,0-.107.22.59.59,0,0,1-.223.27,1.4,1.4,0,0,0-.543,0v.28a.05.05,0,0,0,.057.05c.4-.04.619-.05.65-.05.072-.15.131-.26.166-.33Zm-1.033,24.69a.752.752,0,0,0,.262-.06.472.472,0,0,0-.262-.21Zm.592-1.69-.432-.44-.16.61h.7a1.409,1.409,0,0,1-.111-.17m-.432-19.95h.324c0-.14-.16-.25-.484-.32Zm0-.43c.182-.04.276-.13.276-.27s-.147-.22-.436-.22Zm-.492,15.69a2.146,2.146,0,0,0,.059-.27.549.549,0,0,0-.325,0v.16a1.1,1.1,0,0,1,.266.11m-.266-13.73a2.7,2.7,0,0,0-.166.49c.108-.15.166-.23.166-.28Zm0-4.74-.166.32c.327,0,.506-.05.541-.16a1.048,1.048,0,0,1-.375-.16m-.388,1.09a2.151,2.151,0,0,0,.437-.05c-.035-.11-.178-.21-.437-.28Zm0,13.84c.222.07.343.07.388,0,.036-.14-.129-.24-.492-.27Zm.654-4.69c-.182-.03-.266-.1-.266-.21v-.44h-.388c-.032.04.041.18.222.44a.327.327,0,0,0-.281.16.7.7,0,0,0-.045.16Zm-.758-1.08c.281,0,.434-.06.434-.17a.8.8,0,0,0-.434-.16Zm.1-1.7-.1.33c.25,0,.4-.06.434-.16a1.311,1.311,0,0,1-.33-.17m.222,22.73v-.76l-.6-.38.275,1.03c.1.04.213.07.326.11m.166-6.54-.166-.66c-.371.05-.566.05-.6,0v.66Zm-.666,2.13a1.744,1.744,0,0,0,.174-.38,1.733,1.733,0,0,1-.275-.11,1.265,1.265,0,0,0-.166.33c0,.1.09.16.267.16m-.267-20.28c.295.08.441,0,.441-.21,0-.15-.205-.23-.6-.23Zm.166,10.03a.586.586,0,0,1,.049-.22c-.467-.03-.758-.05-.866-.05l.383.49Zm-.326-.87a.174.174,0,0,1-.057-.11c.035-.15-.035-.22-.219-.22l-.215.6c.18-.03.362-.07.545-.11a.205.205,0,0,1-.054-.16m.427-5.62c-.1-.4-.1-.61,0-.65l-.267-.11a1.076,1.076,0,0,0-.651.44h.383v-.17h.108a1.022,1.022,0,0,0,.427.49m-.918,15.98c.073-.08.166-.17.274-.28-.035-.07-.166-.09-.385-.05.037.1.066.21.111.33m0-14.45a.759.759,0,0,0,.166-.27.539.539,0,0,1-.277-.06c.037.11.066.22.111.33m0-1.41a.994.994,0,0,0,.166-.27.668.668,0,0,1-.277-.06c.037.1.066.21.111.33m1.418,11.98-1.693-.11.275.44a2.652,2.652,0,0,0,.817,0h.275a.419.419,0,0,0,.213-.06.658.658,0,0,1,.113-.27m-1.529-25.06-.164.26c.217-.03.348-.08.383-.16-.071-.03-.153-.07-.219-.1m.111.87v-.17c0-.11-.091-.14-.275-.11a.159.159,0,0,1-.107.06,1.391,1.391,0,0,1,.382.22m-.111,29.7v-.33a.861.861,0,0,0-.324-.05v.38Zm1.2-6.87a.64.64,0,0,1,.045-.22,9.873,9.873,0,0,0-1.412-.05l-.16.27a.814.814,0,0,0,.435.16v.33Zm-1.367,9.65a.684.684,0,0,1-.053-.22c0-.11-.09-.16-.273-.16v.38Zm0-4.85c0-.44-.053-.65-.16-.65l-.166.49a1.328,1.328,0,0,0,.326.16m.658-6.11c.108,0,.162-.02.162-.05a.8.8,0,0,1-.162-.22,7.249,7.249,0,0,1-1.148,0l.164.27.49-.16.326.49a1.2,1.2,0,0,1,.168-.33m-.818-3.7c-.112-.08-.219-.15-.33-.22v.22Zm-.166-8.94a1.139,1.139,0,0,0,.385-.06c0-.14-.19-.23-.549-.27Zm-.164,23a1.19,1.19,0,0,0,.277-.05c0-.18-.131-.33-.385-.44Zm2.615-24.42v-.27l-.432-.16c-.511-.07-.91-.13-1.2-.16v-.39a.764.764,0,0,0,.436-.22l.166-.59c.361-.08.613-.13.767-.17h-.767l.275-.87c-.115-.04-.258-.09-.441-.17v-.32a3.545,3.545,0,0,0,.06-.49.879.879,0,0,0-.06-.44l-.926-.27c.184.55.275.83.275.87a.754.754,0,0,1-.275.49c.291,0,.473.06.549.16a2.771,2.771,0,0,1-.385.17v.27c.254,0,.385.04.385.11.029.14-.149.36-.549.66a1.682,1.682,0,0,1,.766.16v.32h-.491a1.293,1.293,0,0,0-.058.39.5.5,0,0,1-.543.33l-.272-.17v.33a2.3,2.3,0,0,1,.059.38,1.394,1.394,0,0,0,.049.27c.4.11.674.08.814-.11a3.3,3.3,0,0,0,.334-.38c.145.14.233.24.268.27Zm-1.85,23.5v-.29h-.275c.07-.03.115-.15.115-.37-.045-.26-.084-.39-.115-.39l-.924.61v.27h.326a1.539,1.539,0,0,0,.272.38Zm-.6-11.56a.75.75,0,0,0-.6-.39v.55a4.321,4.321,0,0,0,.6-.16m-.272-3.38a.23.23,0,0,1-.056-.16c0-.07-.092-.11-.27-.11v.27Zm.762,10.36h-.922a1.251,1.251,0,0,1-.277.05c.111.03.449.12,1.035.27Zm-1.363-2.68c.072-.03.15-.07.217-.1a.582.582,0,0,0-.217-.28Zm1.2-9.65-1.2-.15v.92a.687.687,0,0,0,.164.27c.326-.33.674-.67,1.035-1.04m-1.035-9.59a.152.152,0,0,0,.111-.05c-.111-.11-.2-.2-.275-.27Zm1.2,3.33h-1.85l.327.49a2.147,2.147,0,0,0,1.634-.28,1.6,1.6,0,0,1-.111-.21m-1.363-8.4a2.472,2.472,0,0,0,.275.23,2,2,0,0,1-.762.21c0-.37.112-.54.327-.54h.1a.145.145,0,0,0,.059.1m-.326,37.5v-.22c0-.1-.049-.14-.161-.1a.337.337,0,0,0-.113.16.4.4,0,0,0,.274.16m.6-4.41c-.074-.04-.074-.09,0-.17-.045.04-.074.06-.111.06v-.27h-.764v1.14a1.644,1.644,0,0,0,.44-.16c.1-.11.1-.21,0-.27a1.827,1.827,0,0,1-.327-.17Zm.166-14.66-.166-.22h-.875v.22Zm-1.258-5.61a.89.89,0,0,0,.278-.06.569.569,0,0,0-.278-.27Zm0,22.62a.545.545,0,0,0,.217.04c-.146.08-.269.15-.381.22a3.057,3.057,0,0,1,.164-.26m.657-18.7a1.451,1.451,0,0,0-.166-.38h-.161l-.494-.16.494.43a1.012,1.012,0,0,0,0,.49,1.4,1.4,0,0,1,.276-.06c.174-.06.193-.18.051-.32m-.657-16.74c.071.04.071.1,0,.17s-.123.13-.164.16a1.942,1.942,0,0,1,.164-.33m-.277,14.94c.186,0,.277-.07.277-.22s-.091-.21-.277-.21Zm.113-12.97-.113.49c.371-.08.535-.2.494-.39-.033-.1-.158-.14-.381-.1m.164,18.04v-.22a1.327,1.327,0,0,0-.437-.17l.16.55a.316.316,0,0,0,.277-.16m2.18,15.2v-.76a4.243,4.243,0,0,1-.762-.17l-.6.28a.741.741,0,0,0-.1.28,1.161,1.161,0,0,1-.058.21,3.223,3.223,0,0,0-.657.16l-.277-.65-.16.88c-.039.18-.07.34-.111.48a1.2,1.2,0,0,0,.548.6c.33.22.549.36.657.44a.418.418,0,0,1,.058-.17,2.254,2.254,0,0,0,.266-.05,5.521,5.521,0,0,1-.539-.38,1.078,1.078,0,0,1-.112-.11.13.13,0,0,1,.112-.05,6.237,6.237,0,0,0,.65-.28v-.22c-.045-.22-.074-.43-.111-.65l.437-.38a.293.293,0,0,1,.219-.06,1.85,1.85,0,0,0,.379-.05.627.627,0,0,0-.16.33c-.041.22.074.32.324.32m-2.947-17.55a1.275,1.275,0,0,0,.17-.32,2.152,2.152,0,0,1-.276-.11c-.142.04-.2.11-.16.22a.318.318,0,0,0,.266.21m.6-2.39h-.709l-.326.59a4.591,4.591,0,0,0,.223.5l.1.6.6.16a1.056,1.056,0,0,1,.172-.22,4.357,4.357,0,0,0-.662-.43v-.61h.49Zm-.709,3.54a1.225,1.225,0,0,0,.325-.05,4.064,4.064,0,0,0-.428-.77h-.223c.072.07.057.16-.057.27a.145.145,0,0,1-.1.06l.486.11Zm0,17v-.6l-.6-.16a.546.546,0,0,0,.058.22,1.636,1.636,0,0,1,.442.17c-.115.07-.166.13-.166.21,0,.11.088.16.269.16m-.326-33.51a.943.943,0,0,1-.277-.17c.047-.19.131-.27.277-.27Zm-1.635,14.06a1.25,1.25,0,0,1,.11.11.758.758,0,0,0-.266.16v-.22c0-.03.043-.05.156-.05m.33,2.56a.105.105,0,0,1-.054-.16.591.591,0,0,1-.166.05,8.48,8.48,0,0,0-.709.49c.074.04.144.08.211.11l.232-.33h.539a.109.109,0,0,0-.053-.16m.379-.93v-.33c-.548-.07-1.1-.16-1.632-.26v.32c0,.25.048.42.16.49.072.04.127.04.164,0v-.22a2.121,2.121,0,0,0,.709.16,1.114,1.114,0,0,0,.6-.16m-1.2,18.15a1.039,1.039,0,0,0-.76-.33Zm1.2-19.18a.358.358,0,0,0-.273-.33,8.012,8.012,0,0,0,.059-.87.928.928,0,0,0-.165-.65h-.33l-.923-.33-.221.49c-.324,0-.492.05-.492.16l.275.27a2.749,2.749,0,0,1,.68-.16c.275-.04.5-.07.681-.11v.55a1.107,1.107,0,0,1-.388.16,3.508,3.508,0,0,1-.375.06.776.776,0,0,1-.219.59.828.828,0,0,0,.219.17c.037,0,.209.02.523.05a6.039,6.039,0,0,1,.676.11.154.154,0,0,1-.053-.11,1.817,1.817,0,0,0,.326-.05m-2.234-16.96c.107.04.148.1.107.17a.37.37,0,0,1-.271.16v-.33Zm1.961-.59v.22c-.358.03-.709.07-1.035.11v.37l-.762-.21-.164.1-.164-.59a9.907,9.907,0,0,0,1.008-.06c.379-.03.609-.06.681-.06.147.05.289.08.436.12m-2.291-1.37a.23.23,0,0,0,.117-.05c-.117-.15-.205-.22-.277-.22Zm.932,39.46-1.2-.11a.6.6,0,0,1,.108.22,1.122,1.122,0,0,1,.16.33c.33.07.572.12.711.16.068-.18.14-.38.221-.6m-1.092-37.17-.108.82c-.293-.25-.406-.44-.324-.54Zm-.108,1.37a3.437,3.437,0,0,1-.6-.17c.031-.03.09-.09.16-.16.258,0,.406.11.441.33m-.441,14a.216.216,0,0,0,.117-.05.361.361,0,0,0-.336-.22Zm-.219-17.22a2.52,2.52,0,0,1,.162-.27c.08-.11.145-.22.219-.33a1.48,1.48,0,0,0-.537-.11Zm1.094,18.26-.166-.38h-.484l.216.27c-.115.11-.216.22-.324.33l-.117-.33a.148.148,0,0,1-.1-.05c-.086,0-.261.02-.55.05v.6a10.321,10.321,0,0,0,1.418-.05c.035-.15.07-.3.107-.44m-2.441,18.96c-.086-.07-.124-.13-.124-.16.038-.03.079-.07.124-.1.2,0,.314.03.314.1,0,.11-.111.16-.314.16m0-1.85c.171,0,.261.04.261.11a.633.633,0,0,1-.441.49,1.088,1.088,0,0,1-.1-.27c-.035-.22.059-.33.284-.33m.589-13.57c.036.04.073.07.108.11-.035.04-.108.13-.217.27a1.235,1.235,0,0,1-.674-.1,2.38,2.38,0,0,0-.472-.17l.486-.55.66.17Zm-1.64-10.35c-.1-.08-.158-.14-.158-.17.029-.11.087-.16.158-.16.152.04.224.09.224.16,0,.15-.072.21-.224.17m.662,6.27a1.44,1.44,0,0,1-.336-.39,4.031,4.031,0,0,0-.209-.38h-.443a.872.872,0,0,0,.224.38.12.12,0,0,0,.1.05,3.99,3.99,0,0,0-.158.61Zm-.82-14.62c.248-.06.382-.38.382-.91v-.23c-.072-.11-.259-.11-.55,0v.33a5.784,5.784,0,0,0,.168.81m9.7-.97v-.87a4.557,4.557,0,0,0-.977-.17,9.147,9.147,0,0,1-.986.06l.16.48-.7.22a2.1,2.1,0,0,0,.1.28l-.1.65v.32a4.534,4.534,0,0,1-1.016-.26,2.052,2.052,0,0,0-.842-.17l-.156.22a1.76,1.76,0,0,1,.592.21c.223.19.326.34.326.45,0,.14-.125.21-.379.21a2.351,2.351,0,0,1-.273-.11c-.369-.07-.709-.14-1.033-.21-.153-.04-.454-.15-.932-.34v-.32h.33v-.43a5.332,5.332,0,0,1,1.525-.22h.33a.732.732,0,0,0,.329-.44,5.244,5.244,0,0,1,.05-.76c.182.04.342-.06.491-.27-.178-.04-.368-.07-.541-.11a1.013,1.013,0,0,0-.549-.06,1.045,1.045,0,0,1-.6.32l-.654-.54.381-.11-.16-.27-.932-.21-.16.48c.254-.07.476-.12.654-.16l.111.66c-.4-.19-.658-.24-.765-.17l-.108.32c-.216.08-.418.16-.6.23-.041.14-.108.38-.215.71a2.448,2.448,0,0,0-.164.6v.32a.759.759,0,0,1-.547-.32l-.48.1v.33l1.027.11v.6c-.147.33-.3.65-.438.98a3.178,3.178,0,0,0,.108,1.01,3.478,3.478,0,0,1,.111,1.11,1.683,1.683,0,0,0-.219.17.918.918,0,0,0-.275.27h.494l-.219.44a5.423,5.423,0,0,0-.978-.17,5.464,5.464,0,0,0-.988.17.545.545,0,0,0,.054.22.456.456,0,0,1,.272.11,2.376,2.376,0,0,0-.047.32.564.564,0,0,1-.111.16c.029.15.216.26.543.33l-.108.39-.277.16a.794.794,0,0,1,.117.32,2.458,2.458,0,0,0,.545.06c.1.04.344.13.7.27v-.33l-.6-.16v-.22c0-.07.037-.1.1-.1l.494.32v-.32c-.111-.11-.215-.22-.314-.33-.045-.12-.106-.24-.18-.39h-.209v-.32a.192.192,0,0,1-.061-.11,1.047,1.047,0,0,0,.27-.05l.18.48a.3.3,0,0,0,.314-.1c.146-.11.242-.19.275-.22a4.357,4.357,0,0,1,.327.65l-.108,1.48-.328.15c.039.59.088,1.14.162,1.67a11.764,11.764,0,0,1,.109,1.61,11.806,11.806,0,0,1-.271,2.23l.436.28a2.261,2.261,0,0,0,.55.05,9.584,9.584,0,0,0,1.414-.16,8.771,8.771,0,0,1,1.25-.17l1.2-.22v-.32c.365.07.58.07.658,0v-.44a1.518,1.518,0,0,1,.183-.6c.125-.25.245-.49.356-.71a11.773,11.773,0,0,0,.219-1.69q.108-1.245.218-2.61l.657.16c.142-.11.289-.22.435-.32a.873.873,0,0,1-.111-.33q-.105-.33,0-.39a1.973,1.973,0,0,0-.651-.16,4.251,4.251,0,0,1-.494-.05,6.53,6.53,0,0,1-.16-.93c-.035-.33-.058-.56-.058-.71a.746.746,0,0,1,.1-.49l-.6-.32v-.71c-.291-.18-.578-.39-.871-.61a3.44,3.44,0,0,0,0-.81,2.708,2.708,0,0,0,.268.49c.22.03.461.07.709.1l.219-.86h.384v-.55a1.25,1.25,0,0,0,.328.05,1.386,1.386,0,0,0,.653.06l.275-.65Zm-8.342,25.77h-.537l.209-.48-.594-.28a.806.806,0,0,0,.223-.6,1.422,1.422,0,0,0-.115-.6h.486a.51.51,0,0,0,.115-.27.706.706,0,0,1,.065-.22,5.232,5.232,0,0,1-1.209-.33.451.451,0,0,1,.111.33,1.194,1.194,0,0,0,.047.38h-.158a.708.708,0,0,0,.275.38v.17a.132.132,0,0,1-.117-.06h-.489v.33c.258,0,.387.07.387.22-.111.33-.183.56-.224.71a3.18,3.18,0,0,0,.384.05.22.22,0,0,1,.219.16v.55a1.717,1.717,0,0,0,.441-.06c-.044.08-.24.15-.6.23v.48c.545-.1.848-.16.934-.16.1-.03.148-.16.148-.38Zm-1.357-27.63c.029-.18.056-.28.056-.32-.039-.07-.111-.09-.224-.06s-.163.07-.163.11c.112.18.217.27.331.27m1.357,15.26H172.3a4.648,4.648,0,0,1,.385-.43,4.806,4.806,0,0,1-.82-.11v-.65a2.026,2.026,0,0,0-.6-.12c0,.19.109.24.326.17.106-.04.147-.17.106-.38a2.967,2.967,0,0,1-.163-.49,1.348,1.348,0,0,0,.489-.27c.117-.18.242-.38.385-.61a1,1,0,0,1,.542.06,3.256,3.256,0,0,0-.16.76,2.358,2.358,0,0,0,.219.11.515.515,0,0,1-.115.16,2.71,2.71,0,0,0-.754-.27l-.117.55h.385c-.036.18-.073.34-.108.49l.922.27Zm-1.795,15.92c.035.03.07.07.107.1a1.143,1.143,0,0,1-.326.17v-.22c0-.03.073-.05.219-.05m1.258-12.81H172.3a1.123,1.123,0,0,1-.277-.16.251.251,0,0,0-.326,0l.326.6a1.5,1.5,0,0,0-.815.87h.657l-.168-.44h.443a4.308,4.308,0,0,1,.545-.87m-1.258,11.94c.035-.19.059-.3.059-.33-.037-.11-.131-.13-.278-.05a1.669,1.669,0,0,0-.056.27c.043.14.129.18.275.11m0,7.08a.182.182,0,0,1-.053-.11c.035-.14-.05-.22-.273-.22v.33Zm.6-15.48-.815.11H171.1v-.11c.072-.1.129-.18.164-.22.184-.18.326-.27.432-.27a.161.161,0,0,1,.224.11.866.866,0,0,0,.1.38m-.158,16.4v-.54h-.924a1.939,1.939,0,0,0,.593.44v.22a.112.112,0,0,0,.163-.06.121.121,0,0,1,.168-.06m-.168-4.46c.072-.29.019-.44-.163-.44l-.433.16c-.076.08-.125.13-.16.17.433.07.691.11.756.11m1.525-4.25a.925.925,0,0,1,.055-.27,1.993,1.993,0,0,0-1.137-.34l-.117.34h-.6a1.718,1.718,0,0,1-.486-.17v.44h1.2l.268.43h.486Zm-2.014-.76c.254,0,.366-.12.326-.33a.358.358,0,0,0-.326-.16,1.457,1.457,0,0,0-.267.43.535.535,0,0,0,.267.06m1.686,3.69c.191-.14.2-.27.056-.37a1.152,1.152,0,0,0-.542-.16l-.543.38-1.04-.22c.034.26.081.37.116.37l-.116.61h1.86a.474.474,0,0,0,.164-.32,2.117,2.117,0,0,1,.045-.29m-1.953-5.82-.116.44c.217-.04.348-.11.383-.22a2.513,2.513,0,0,1-.267-.22m.486-1.15-.219-.49v-.38l-.267-.11a1.228,1.228,0,0,0-.166.44c.037.14.084.2.166.16l-.116.66Zm-.219-15.74a2.369,2.369,0,0,0-.535.76.63.63,0,0,0,.152.27,3.445,3.445,0,0,0,.661-.93c-.112-.04-.205-.07-.278-.1m0,6.97c-.254-.11-.455-.2-.592-.27.137.07.192.24.133.52-.058.26-.1.49-.133.68a.8.8,0,0,0,.485.21c.223,0,.326-.16.326-.48a1.009,1.009,0,0,0-.219-.66m1.582-5.45a1.091,1.091,0,0,1-.1-.82h-1.477c.254.11.383.25.383.44s-.164.31-.49.38a.233.233,0,0,1-.16-.05.276.276,0,0,0-.325-.11v.43a.15.15,0,0,1,.209.06.233.233,0,0,0,.276.11c.107-.11.18-.18.223-.23a.579.579,0,0,1,.373-.21l.326.27c.117.16.117.25,0,.33a3.043,3.043,0,0,1-.6.16v.39c-.184.13-.344.26-.486.38a1.325,1.325,0,0,0,.486,0Zm-1.363-3.22c.147.04.205-.01.164-.16-.072-.25-.129-.46-.164-.6a5.132,5.132,0,0,1-.811-.16c.032.25.071.51.1.76.035.07.268.12.709.16m-.326-8.83q.055-.27-.485-.27Zm10.029,32.16a.994.994,0,0,1-.111-.44c-.289-.18-.432-.32-.432-.43a2.365,2.365,0,0,0,.108-.82.413.413,0,0,1-.215-.06,2.245,2.245,0,0,1-.112-.37c.112-.08.161-.28.161-.61-.106.04-.161-.01-.161-.16.067-.32.133-.69.192-1.09a7.564,7.564,0,0,0,.084-1.04,7.989,7.989,0,0,0-.084-.84,3.62,3.62,0,0,0-.328-1.12,8.046,8.046,0,0,1-.358-.76.5.5,0,0,1,.112-.44.388.388,0,0,0,.052-.43l-.548-.11a2.465,2.465,0,0,0-.325-.71,1.132,1.132,0,0,0-.486,0c-.217-.21-.41-.38-.543-.49a2.162,2.162,0,0,0-.854-.49,7.231,7.231,0,0,0-1.412-.14c-.675-.02-1.082-.03-1.23-.03v-.21a1.128,1.128,0,0,0,.549-.22l-.432-.27a3.721,3.721,0,0,1-.492.16c-.115.04-.182-.03-.215-.22a1.532,1.532,0,0,1-.06-.43,3.153,3.153,0,0,0,.812.21,1.518,1.518,0,0,0,.713-.32h.439l-.111-.66a8.112,8.112,0,0,1-1.086.12,1.6,1.6,0,0,1-.656-.12l-.219-.1v.43l-.494.44.494.38a2.36,2.36,0,0,0-.166.27c-.109.26-.123.4-.053.44h-.275a2.378,2.378,0,0,1,.166-.44l-.764-.49a1.523,1.523,0,0,0-.543-.11.1.1,0,0,0-.107.11v.33a.919.919,0,0,0-.275.49h.543l.382.43a4.419,4.419,0,0,0-.925-.16,4.542,4.542,0,0,0-1.04.16l.116.44c-.116-.04-.166,0-.166.11a3.853,3.853,0,0,0,.05.49h.383v.33c-.433.39-.652.68-.652.87.141.37.269.72.385,1.09h.593v-.33c.081-.14.235-.18.489-.11a1.842,1.842,0,0,1,.117.44h.545l.1-.55a6.138,6.138,0,0,1-.869-.16c.031-.07.067-.15.1-.22l.662-.11a1.414,1.414,0,0,0,.1-.11,2.771,2.771,0,0,0-.925-.11,4.5,4.5,0,0,1-.657.06c-.035-.37.073-.53.326-.49a1.461,1.461,0,0,1,.163-.43,1.77,1.77,0,0,1,.875-.17h.982c.109.76.217,1.52.328,2.29a.335.335,0,0,1-.166.16c-.144.08-.2.17-.162.27h.328v1.7l-.328.16c0,.14.109.29.328.44,0,.21-.035.65-.111,1.3s-.108,1.1-.108,1.31v.27c.036.08.108.08.219,0a3.031,3.031,0,0,0-.166.55c-.029.25.02.4.166.43a2.7,2.7,0,0,1,0,.76l-.494.23v.32a.683.683,0,0,0,.166.21v.61a.327.327,0,0,0-.219.11.483.483,0,0,1-.113.16,1.311,1.311,0,0,1-.272-.05.712.712,0,0,0-.542-.11.825.825,0,0,1-.268.32l.16.28,1.363-.11h.162a.991.991,0,0,0,.057.22c-.146.03-.275.07-.383.1a1.555,1.555,0,0,0,.491.77l.767.38,3.805-.22v-.49h.5l.1-.27a.278.278,0,0,1,.325,0,1.139,1.139,0,0,0,.271.11.635.635,0,0,0,0-.38,1.057,1.057,0,0,1-.16-.22l.654-.33c.041-.07,0-.16-.109-.27-.037-.04-.071-.07-.108-.11.108-.07.2-.3.278-.68s.142-.74.213-1.07a2.792,2.792,0,0,0,.6.17m-7.467-15.26v-.28h-2.129v-.76a3.2,3.2,0,0,1-.326.11l-.592-.11c.209.04.268.2.159.5-.039.11-.147.34-.332.71.4-.04.8-.1,1.2-.17a2.622,2.622,0,0,1,1.144.33h.284Zm-3.047-1.69-.173.33c.293-.03.5-.05.6-.05a3.317,3.317,0,0,0,.444-.06,5.847,5.847,0,0,0-.87-.22m1.081-5.18-.163-.76H171.1l-.658.65c.254.15.382.26.382.33.186-.18.313-.25.383-.22Zm-1.254-9.1c.23,0,.332-.07.332-.22,0-.18-.1-.27-.332-.27Zm5.617,35.48c-.4,0-.809-.01-1.227-.02a3.732,3.732,0,0,1-1.17-.25c-.15-.15-.257-.25-.328-.33-.031-.04-.131-.13-.261-.27-.483.07-.827.13-1.051.16v-.49h.767a.71.71,0,0,0,.284.17l.148-.33h-1.688a1.6,1.6,0,0,0-.326-.11c-.107-.18-.2-.27-.267-.27l-.116.38a.579.579,0,0,0-.382.16,2.644,2.644,0,0,1,1.091.17v.43c-.21-.04-.419-.07-.593-.11a.152.152,0,0,1-.116.05c-.25.19-.41.32-.49.39v.6a1.974,1.974,0,0,0,.873.16l.219-.38q-.276.105-.385,0a4.709,4.709,0,0,0,.655-.38v.49c.072.08.224.08.443,0l.16.27a14.825,14.825,0,0,0,0,1.8h.922l-.537-.82a1.171,1.171,0,0,0,.389.22c.13-.07.3-.14.48-.22l.547.49c.291-.14.482-.23.6-.27.1-.07.234-.14.382-.22l-.216-.38c.4-.4.8-.76,1.2-1.09m-3.92-29.21a1.412,1.412,0,0,1-.713.11l-.219-.28c.254-.07.383-.2.383-.37,0-.08-.017-.11-.057-.11a.783.783,0,0,0-.433,0q-.818.21-.817.6a.941.941,0,0,0,.051.37.163.163,0,0,0,.108.06c.254-.03.511-.07.765-.11a.183.183,0,0,1,.166.11.462.462,0,0,0,.491.21l.158-.32c.076,0,.117-.09.117-.27m1.414,24.3v-.21H172.3a1.226,1.226,0,0,0-.16.43,2.8,2.8,0,0,0-.606-.1,2.177,2.177,0,0,1-.593-.12h-.709c.031.08.07.15.1.22a2.4,2.4,0,0,1,.766.76h1.584c.324-.17.488-.3.488-.37a1.252,1.252,0,0,0-.488-.12v-.49Zm-3.219,2.35a.83.83,0,0,0,.108-.27c.043-.18-.051-.26-.268-.22-.144.04-.187.11-.107.22a.94.94,0,0,0,.267.27m-.16-13.08c0-.25-.059-.38-.166-.38Zm0-1.58c-.072-.04-.1-.11-.059-.22.038-.18-.037-.27-.214-.27v.49Zm0-1.53a.153.153,0,0,1-.059-.21c0-.05-.072-.06-.214-.06v.27Zm-.492-12.92-.108.45v.26a.628.628,0,0,0,.434-.65.343.343,0,0,0-.326-.38Zm0-4.03c.037-.18,0-.27-.108-.27Zm.219,38.43c.037-.36-.125-.52-.491-.44a.443.443,0,0,0,.059.22c.072.03.213.1.432.22m-.491-7.25c-.072-.26-.125-.39-.17-.39a1.485,1.485,0,0,0,.17.39m0-2.46c-.072-.25-.125-.37-.17-.37a1.344,1.344,0,0,0,.17.37m.764-9.81h-.764l-.17.33a2.583,2.583,0,0,0,.768.22.858.858,0,0,1,.166-.22Zm-.934-3.97a.393.393,0,0,0,.114-.16.675.675,0,0,1-.219-.06Zm1.094,12.1-1.359-.17.6.76h.6c-.072-.03-.072-.14,0-.32,0-.04.057-.12.16-.27m-.433-3.06c-.08-.24-.153-.45-.219-.6h-.707c.035.11.182.22.435.33v.6a2.523,2.523,0,0,1,.491-.11Zm-.926-1.14c.254-.18.379-.35.379-.49,0-.11-.125-.18-.379-.22Zm1.033-8.89a1.573,1.573,0,0,0-.539-.21,3.2,3.2,0,0,1-.494-.11v.11c.035.08.182.14.435.21v.28a.5.5,0,0,0,.6-.28m-.107,7.31c-.254-.08-.383-.18-.383-.33a1.3,1.3,0,0,0-.108-.49h-.275c-.068.29-.148.56-.219.82,0,.15.168.23.494.27a1.207,1.207,0,0,1,.272-.05v-.06h.273a.213.213,0,0,1-.054-.16m-.661,10.51c0-.32-.023-.49-.105-.49-.219,0-.326.08-.326.22a.414.414,0,0,0,.431.27m0-24.08a2.487,2.487,0,0,0,.059-.44.151.151,0,0,0-.164-.17l-.379.28c-.072.07-.094.13-.049.17a3.63,3.63,0,0,0,.533.16m-.484,16.29-.107.33a1.486,1.486,0,0,0,.435-.11c.033-.04.073-.07.11-.11a1.377,1.377,0,0,0-.438-.11m.484-7.95c-.359.14-.533.29-.533.43a1.107,1.107,0,0,1-.058.49h.486c.105-.21.219-.45.334-.7.031-.19-.041-.26-.229-.22m-.484,18.96c.074-.21-.019-.32-.267-.32Zm0-28.67a2.084,2.084,0,0,0,.219-.43,1.179,1.179,0,0,1-.326-.05l-.16.32Zm.219,13.74c-.219-.07-.42-.15-.6-.22v.33l.381.16c.147,0,.219-.09.219-.27m1.033,12.1-.434-.16a1.665,1.665,0,0,1-1.2.82.4.4,0,0,0-.052.21c0,.04.052.11.166.22l1.193-.11.219-.61a3.773,3.773,0,0,0,.107-.37m3.654-32.27a.575.575,0,0,1-.109-.21c-.072-.11-.18-.13-.332-.06l-1.688,1.04-.107.49-.326-.16.107-.6a6.233,6.233,0,0,0-.924.05c-.253.03-.494.07-.709.1h-.334a4.948,4.948,0,0,1-.484-.32l-.107.66a1.641,1.641,0,0,1,.591-.22l-.105.49h-.486v.71h.591v.54h-.484c-.142.08-.289.15-.433.22.031.21.144.33.326.33a1.85,1.85,0,0,0,1.033-.33v-.93a.487.487,0,0,1-.272-.33c.178,0,.272-.04.272-.11l.326-.59.434.59a.755.755,0,0,1,.658-.1v.43a2.819,2.819,0,0,0-.766.28,1.156,1.156,0,0,1,.281.16c.071.07.071.13,0,.16l.592-.1v-.72h.326l.163-.11c.224-.03.457-.07.711-.1v-.49a.729.729,0,0,1,.542.16.44.44,0,0,0-.056.17c.191.03.279-.1.279-.39,0-.36-.088-.56-.279-.6Zm-3.761,8.12-1.145.11-.107.77c-.295.07-.438.22-.438.43,0,.26.182.33.545.22v-.49c.438-.07.713-.13.818-.16a2.067,2.067,0,0,1-.164-.44l1.088-.44Zm-1.412,19.51c0-.25-.114-.37-.331-.37Zm1.519-1.85-.6-.11a6.765,6.765,0,0,0-1.363.11c0,.19.029.27.111.27v.61h.331a.869.869,0,0,0,.267-.39v-.22a2.447,2.447,0,0,1,.6-.05,3.42,3.42,0,0,0,.547.05Zm-1.359-2.56-.491-.38.217.49c-.328.03-.459.14-.381.32.039.16.164.21.381.17Zm.925-10.13a1.225,1.225,0,0,0,0-.55c-.074-.11-.345-.17-.818-.17l-.107.44h-.715a.924.924,0,0,0,.224.17l-.111.59c.365.08.6.08.709,0v-.59a6.068,6.068,0,0,0,.818.11m.327,23.48h-.661c-.105-.03-.265-.22-.484-.54l-.267-.11c.1-.18.173-.31.218-.38a.852.852,0,0,1-.058-.33c-.076.04-.16.23-.274.6a2.218,2.218,0,0,1-.486.05,1.113,1.113,0,0,0,.6.44,3.386,3.386,0,0,0,.16.5l1.033.1Zm0-6.26a.637.637,0,0,1-.112-.27,4.477,4.477,0,0,0-.107-.44l-1.193-.16-.114.27h-.486v.33l.76.38v-.55l.486-.16.105.6Zm-1.854-15.7a1.129,1.129,0,0,0,.383.05,5.244,5.244,0,0,0-.541-.81,1.472,1.472,0,0,1,.158.54Zm-.158,16.68a2.023,2.023,0,0,0,.381-.05,1.063,1.063,0,0,0-.553-.44Zm19.83.59-.326.39a11.634,11.634,0,0,0-.108,1.25v.99a3.409,3.409,0,0,1-.111,1.03l-.213.1v.66l-1.967,3a.914.914,0,0,1-.484,0,3.972,3.972,0,0,1-.5.65c-.283.11-.576.22-.869.33l-1.252.71c-.112,0-.2-.09-.276-.27a.272.272,0,0,1-.054-.16h-1.309l-.654.27a9.56,9.56,0,0,1-1.061.07c-.494.03-.937.05-1.336.09a2.089,2.089,0,0,1-.388-.05,5.81,5.81,0,0,0-.862-.22l-.111.27a10.914,10.914,0,0,0-1.912-.16,13.607,13.607,0,0,0-2.234.16,2.753,2.753,0,0,0-.6-.16c-.4.04-.947.05-1.631.05-.436,0-.879-.01-1.311-.03s-.892-.02-1.359-.02c-.039-.15-.08-.3-.111-.44l.213-.11c0-.33-.018-.71-.057-1.17s-.045-.79-.045-1.01a8.773,8.773,0,0,1,.1-1.14,9.416,9.416,0,0,0,.117-1.21,4.768,4.768,0,0,0-.117-.81l.384-.16a2.753,2.753,0,0,0-.086-1.06c-.084-.32-.181-.63-.3-.96a5.677,5.677,0,0,1,.134-1.15,4.6,4.6,0,0,0,.141-.81l-.377-1.36a10.855,10.855,0,0,1,.266-1.7,4.878,4.878,0,0,0,.111-.92,5.359,5.359,0,0,1-.377-1.36,16.945,16.945,0,0,1,.377-3.71v-.55c0-.07-.074-.65-.217-1.74a9.772,9.772,0,0,1-.16-1.9l.377-.66c-.144-.04-.275-.07-.377-.11,0-.51.014-1.03.045-1.58s.08-1.09.115-1.64a5.669,5.669,0,0,0-.058-.97c-.032-.55-.071-1.09-.1-1.64.07-.11.125-.2.16-.27a1.846,1.846,0,0,0,.217-.61,6.772,6.772,0,0,0-.184-.95,5.458,5.458,0,0,1-.193-1.33l.377-1.2-.377-.49c.031-.77.07-1.52.1-2.29,0-.26-.032-1.03-.1-2.31-.08-1.3-.111-1.99-.111-2.11a2.873,2.873,0,0,1,.213-.95c.146-.38.236-.62.275-.73.871-.11,2.412-.19,4.633-.22s3.469-.06,3.758-.06H178.4c.365,0,.677.01.953.03s.517.03.74.03a2.333,2.333,0,0,0,.6-.06l.324.44a.455.455,0,0,0,.437-.16.626.626,0,0,0,.108-.17l1.683.5c.073.03.159.16.219.38a2.831,2.831,0,0,0,.059.37,2.275,2.275,0,0,0,.713.22,1.975,1.975,0,0,1,.865.38,1.232,1.232,0,0,1,.111.49v.44h.33a4.086,4.086,0,0,0-.166.66,2.678,2.678,0,0,1,.875.7,5.346,5.346,0,0,1,.057.82,2.338,2.338,0,0,0,.051.55l.439.27a3.69,3.69,0,0,1-.088,1.03,3.531,3.531,0,0,0-.074,1.1,3.627,3.627,0,0,0,.162.54,2.921,2.921,0,0,1,.162.87l-.324.44a1.293,1.293,0,0,0,.266.92,1.169,1.169,0,0,1,.271.33l-.213.6v1.25l-.324.22a.612.612,0,0,0,.162.54.552.552,0,0,0,.162.12,14.543,14.543,0,0,1-.324,2.39,7.7,7.7,0,0,1-.652,2.19l-.991,1.19a.7.7,0,0,1-.431.11,1.1,1.1,0,0,0-.385.05c0,.34-.057.54-.164.61l-.768.49a9.216,9.216,0,0,1,2.131,1.12,3.882,3.882,0,0,1,1.422,1.44,1.053,1.053,0,0,0-.162.32q.593.285.756,2.43c.111,1.43.164,2.72.164,3.84q0,.975-.022,1.83t-.031,1.5c.078.36.143.72.215,1.08m-20.92,2.19a.491.491,0,0,0,.16.1.559.559,0,0,1-.439.28c.117-.25.2-.38.279-.38" transform="translate(0 1343.059)"/>
    <path id="Path_34" data-name="Path 34" class="cls-1" d="M214.262-1273.78c-.035.11-.07.21-.1.32.035-.11.07-.21.1-.32m-9.477,0c-.408-.04-.628-.11-.66-.22a2.78,2.78,0,0,1,.383-.11c0-.19.035-.28.111-.28a.584.584,0,0,0,.166.28Zm.592-.33-.326-.87h.326c0-.73.014-1.35.059-1.85.035-.52.072-.99.1-1.42a7.56,7.56,0,0,0-.16-1.58h-.326c-.033-.15-.074-.31-.115-.49a5.108,5.108,0,0,0-.151-.77,1.358,1.358,0,0,1-.6,0v-.21h-1.258v.21a1.94,1.94,0,0,0-.383.39,1.026,1.026,0,0,1-.158.54h-.332a4.643,4.643,0,0,0-.055.87c.034.73.055,1.26.055,1.58a.513.513,0,0,0-.273.33h.273a.986.986,0,0,1-.273.27v1.8h.273a.676.676,0,0,1-.273.65l.273.88c.8.07,1.334.11,1.607.13a8.008,8.008,0,0,1,1.125.19,5.459,5.459,0,0,1,.592-.65m-5.771,11.22v-.1c.031-.15-.059-.22-.282-.22v.32Zm12.754-8.23h-.336v3.11c-.039.04-.123.04-.26,0a.424.424,0,0,0-.066.27h-1.2v-.6a.859.859,0,0,0-1.086.33.664.664,0,0,0-.113.27H207.45v-.22a2.565,2.565,0,0,0-.594-.05h-1.149a1.563,1.563,0,0,0,0,.6h-.33l-.326.6a1.757,1.757,0,0,0-.867,0l.867-1.2c-.254,0-.644-.03-1.17-.08s-.808-.08-.844-.08a2.746,2.746,0,0,0-.984.16v.27h-.273a2.454,2.454,0,0,1,.273,1.21,16.113,16.113,0,0,1-.244,2.34,18.408,18.408,0,0,0-.246,2.02,5.739,5.739,0,0,0,.217,1.69h.273v.6l.332.05c.072.51.158.99.268,1.47h1.531v-.28c.137-.07.254-.12.324-.15a.946.946,0,0,0,.277-.17,3.967,3.967,0,0,0,.151-1.36,5.687,5.687,0,0,1,.115-1.37,2.276,2.276,0,0,0-.266-.05v-.22h.266v-2.45H211.7c0,.08.113.18.326.33v1.19h-.272a7.485,7.485,0,0,0-.054.98v3.27h-.27v1.2h-.268a8.916,8.916,0,0,1,0,1.2h-.336a1.277,1.277,0,0,1,0,.6l-.6.33a1.386,1.386,0,0,1,0,.6H209.9l-.278.6h-.592l-.326.6-1.257.33v.27a4.077,4.077,0,0,0-.87,0v.27a11.855,11.855,0,0,0-1.853.23,11.741,11.741,0,0,1-1.641.22h-1.033v-.45h-.924v-.27a5.365,5.365,0,0,1-1.523,0v-.27c-.407-.11-.8-.22-1.205-.33v-.33a1.4,1.4,0,0,1-.543,0l-.928-1.2h-.324a.883.883,0,0,1-.112-.49,1.066,1.066,0,0,0-.166-.71l-.921-.26v-.61h-.327v-1.53h-.271v-2.39a.991.991,0,0,0,.322-.17c.08-.07.051-.14-.051-.22h-.271c0-.72.029-1.47.084-2.23s.125-1.55.187-2.34a10.381,10.381,0,0,0-.271-2.35h-.328v-1.2h.328v-1.58h-.328a.8.8,0,0,1,0-.42c.029-.26.136-.33.328-.22a.9.9,0,0,1-.277-.44,1.961,1.961,0,0,1,.277-.1v-5.08h.271v-1.25h.327v-1.2h-.327a2.976,2.976,0,0,1,.385-1.34c.248-.48.432-.84.539-1.06h-.324v-.33l.648-.28v-.65l.883-.59a2.252,2.252,0,0,1,.317-.88h.33l.543-.93a1.837,1.837,0,0,1,.6,0v-.27a3.511,3.511,0,0,0,.926,0v-.38h.6v-.21a1.735,1.735,0,0,1,.6-.11c.58.06,1,.11,1.256.11v-.35a1.166,1.166,0,0,0,.92.35v-.35a9.287,9.287,0,0,1,1.631.18,10.408,10.408,0,0,0,1.644.17v.21a3.958,3.958,0,0,1,.87,0v.38h.652v.27h.6l.326.61h.592l.6.92a1.1,1.1,0,0,0,.33.17.721.721,0,0,1,.267.11,1.585,1.585,0,0,0,0,.59h.336v.65h.268v.61h.27v.59h.273a3.306,3.306,0,0,1,.053.75v1.28h.336a3.612,3.612,0,0,0-.28.88.588.588,0,0,0,.28.05v3.09h-.336a4.025,4.025,0,0,1,.336.93h-.336v.71a.673.673,0,0,0,.336.49v.28h-.336v1.43a.694.694,0,0,1,.336.63" transform="translate(0 1343.059)"/>
    <path id="Path_35" data-name="Path 35" class="cls-1" d="M227.778-1288.59a9.691,9.691,0,0,0-.3,1.59q-.087.825-.086,2.25v1.53a6.941,6.941,0,0,0,.162,1.48h-.427v.59c.191-.1.306-.06.361.12a1.856,1.856,0,0,0,.066.49H227.2c0,.07-.024.27-.07.59h.222a.92.92,0,0,0,.2.34h-.427v2.56a16.1,16.1,0,0,1-.045,1.68c-.034.22-.106.3-.227.22v.33c.07.04.156.23.272.6h.324a.665.665,0,0,1-.059.44.538.538,0,0,1-.043.16v.16a.684.684,0,0,0-.222-.06c0,1.16.039,3.18.132,6.08s.133,4.63.133,5.21h-.381a1.857,1.857,0,0,0,.2.22,1.115,1.115,0,0,1,.181.65h-.265v1.53h.324l-.324.59c-.116.26-.024.45.265.55v.33h-.265v2.67h.265v.49c-.056.11-.117.22-.177.33-.032,0-.049,0-.049.02s-.014.16-.039.41c.252.22.361.4.324.55a1.219,1.219,0,0,1-.324.05v1.48a.428.428,0,0,0-.272.32H225.63c-.42,0-.831-.02-1.227-.05a13.015,13.015,0,0,0-1.418.05c-.035,0-.223.03-.547.08a2.012,2.012,0,0,1-.715.03v-.27h-.7l-.387-.6h-.195a2.822,2.822,0,0,1-.092-.65c0-.11-.011-.3-.033-.55a1.812,1.812,0,0,0,.32-.17c-.021-.22-.037-.41-.037-.59a.8.8,0,0,1-.283-.28c-.076-.07-.076-.12,0-.16h.32v-6h.383v-.92a.9.9,0,0,0-.293-.11,1.269,1.269,0,0,1-.41-.22,4.568,4.568,0,0,1,.7-.87v-.27c-.107.03-.2-.1-.267-.39a6.834,6.834,0,0,1-.116-1.57v-1.69a2.8,2.8,0,0,0-.32-.06c-.117-.07-.117-.14,0-.22h.32v-2.99a.266.266,0,0,0,.217,0l-.217-.17c.073-.03.161-.09.289-.16a1.538,1.538,0,0,1,.094-.33,2.99,2.99,0,0,1-.49-.27l.49-.27a1.777,1.777,0,0,1-.166-.55c.037-.25.094-.38.166-.38h-.428a2.99,2.99,0,0,1-.275-.82c0-.25.1-.38.32-.38v-.33l-.107-.1v-1.04h.275a4.987,4.987,0,0,0,.049-.71v-.38a10.532,10.532,0,0,0-.1-1.39c-.082-.49-.153-.97-.223-1.45.107,0,.164-.08.164-.27a5.9,5.9,0,0,1-.057-.65.772.772,0,0,1-.269-.16,2.124,2.124,0,0,1,.269-.12,5.219,5.219,0,0,0,.217-1.25v-.33a1.011,1.011,0,0,1-.092-.27.755.755,0,0,1-.232-.59h.107v-2.4l.383-.12a.732.732,0,0,1-.035-.21.385.385,0,0,1-.18.05,6.239,6.239,0,0,0,.166-.84,9.143,9.143,0,0,0,.049-.95h-.383v-.6l.383-.34a.758.758,0,0,1-.383-.43l.383-.33c-.072-.25-.156-.56-.246-.92a4.213,4.213,0,0,1-.137-.98.6.6,0,0,1,.075-.33c.05-.07.152-.07.308,0v-3.6a.914.914,0,0,0,.279-.27,5.4,5.4,0,0,0,1.139-.1,8.954,8.954,0,0,0,1.022-.29h3.328l.34.83h.265v.87h.162c0,.47-.025,1.15-.076,2.03s-.086,1.6-.086,2.18a.447.447,0,0,0,.194.11.7.7,0,0,1,.191.06l-.385.33a2.733,2.733,0,0,0,.385.54" transform="translate(0 1343.059)"/>
    <path id="Path_36" data-name="Path 36" class="cls-1" d="M240.424-1288.59a9.4,9.4,0,0,0-.3,1.59q-.078.825-.078,2.25v1.53a7.072,7.072,0,0,0,.16,1.48h-.429v.59c.193-.1.31-.06.357.12a1.486,1.486,0,0,0,.072.49h-.361c0,.07-.023.27-.068.59h.211c0,.05.072.16.218.34h-.429v2.56a15.048,15.048,0,0,1-.053,1.68c-.025.22-.1.3-.227.22v.33c.075.04.164.23.28.6h.328a.785.785,0,0,1-.059.44.421.421,0,0,1-.058.16v.16a.576.576,0,0,0-.211-.06c0,1.16.045,3.18.129,6.08s.14,4.63.14,5.21h-.385a2.192,2.192,0,0,0,.194.22,1.106,1.106,0,0,1,.191.65h-.269v1.53h.328l-.328.59c-.116.26-.022.45.269.55v.33h-.269v2.67h.269v.49c-.064.11-.119.22-.183.33-.028,0-.041,0-.041.02s-.018.16-.045.41c.252.22.357.4.328.55a1.32,1.32,0,0,1-.328.05v1.48a.451.451,0,0,0-.28.32h-1.226c-.418,0-.821-.02-1.225-.05a13.128,13.128,0,0,0-1.418.05c-.037,0-.213.03-.541.08a1.979,1.979,0,0,1-.709.03v-.27h-.7l-.387-.6h-.211a4.544,4.544,0,0,1-.072-.65c0-.11-.015-.3-.043-.55a1.856,1.856,0,0,0,.326-.17,3.9,3.9,0,0,1-.045-.59.864.864,0,0,1-.281-.28c-.07-.07-.07-.12,0-.16h.326v-6h.379v-.92a.832.832,0,0,0-.295-.11,1.379,1.379,0,0,1-.41-.22,5.232,5.232,0,0,1,.705-.87v-.27c-.1.03-.2-.1-.267-.39a7.276,7.276,0,0,1-.112-1.57v-1.69a2.784,2.784,0,0,0-.326-.06c-.115-.07-.115-.14,0-.22h.326v-2.99a.265.265,0,0,0,.217,0l-.217-.17c.063-.03.155-.09.28-.16a2.134,2.134,0,0,1,.1-.33,3.288,3.288,0,0,1-.486-.27l.486-.27a1.855,1.855,0,0,1-.162-.55c.037-.25.092-.38.162-.38h-.424a2.948,2.948,0,0,1-.281-.82c0-.25.1-.38.326-.38v-.33l-.107-.1v-1.04h.268a5.2,5.2,0,0,0,.056-.71v-.38a9.924,9.924,0,0,0-.1-1.39c-.076-.49-.149-.97-.219-1.45.107,0,.166-.08.166-.27a4.774,4.774,0,0,1-.059-.65.773.773,0,0,1-.273-.16,2.077,2.077,0,0,1,.273-.12,5.22,5.22,0,0,0,.217-1.25v-.33a1.022,1.022,0,0,1-.1-.27.763.763,0,0,1-.227-.59h.107v-2.4l.379-.12a.8.8,0,0,1-.031-.21.374.374,0,0,1-.187.05,4.177,4.177,0,0,0,.16-.84,7.526,7.526,0,0,0,.058-.95h-.379v-.6l.379-.34a.774.774,0,0,1-.379-.43l.379-.33c-.07-.25-.152-.56-.246-.92a4.414,4.414,0,0,1-.133-.98.6.6,0,0,1,.075-.33c.05-.07.152-.07.3,0v-3.6a.909.909,0,0,0,.282-.27,5.392,5.392,0,0,0,1.138-.1,8.73,8.73,0,0,0,1.022-.29h3.33l.338.83h.269v.87h.16c0,.47-.021,1.15-.082,2.03s-.078,1.6-.078,2.18a.38.38,0,0,0,.192.11.747.747,0,0,1,.191.06l-.383.33a2.64,2.64,0,0,0,.383.54" transform="translate(0 1343.059)"/>
    <path id="Path_37" data-name="Path 37" class="cls-1" d="M258.133-1278.75a.2.2,0,0,1-.057-.15c0-.08-.078-.12-.269-.12v.27Zm-.928.38a.291.291,0,0,1-.06-.21c0-.11-.08-.17-.268-.17v.38Zm-.926-2.78a.187.187,0,0,1-.052-.15c0-.08-.067-.11-.219-.11v.26Zm-1.794,14.83a1.234,1.234,0,0,0,.1.17,1.407,1.407,0,0,1-.27.16v-.22c0-.07.055-.11.165-.11m1.523-2.67-.166-.33h-.756v-.27a3.125,3.125,0,0,0-.6-.05,3.6,3.6,0,0,1-.655.05,3.589,3.589,0,0,0,.328.38.285.285,0,0,1,.162.22,4.34,4.34,0,0,1-.273.6h-.336v.6l-.916.33c-.035-.22-.131-.33-.277-.33v2.13h-.326v.27h.326v1.85h-.326v.93a.29.29,0,0,0,.224,0,.755.755,0,0,1,.1.28h-.326v.32l.6.27c0,.07-.1.18-.277.32a8.618,8.618,0,0,0,.084,1.45,5.8,5.8,0,0,0,.517,1.28h.266a.189.189,0,0,1,.061.16c0,.12.091.15.265.12v-.6h.934l.275-.87h.332v-.6h.322v-1.26a.788.788,0,0,1-.322-.27c.065-.04.158-.09.266-.16a3.879,3.879,0,0,1,.056-.44c-.222,0-.322-.13-.322-.39v-.54a1.71,1.71,0,0,0,.266-.17,3.8,3.8,0,0,1,.056-.43h-.322v-2.18a.282.282,0,0,0-.221,0q-.059,0-.111-.21l.654-.33v-.6a.427.427,0,0,1-.382-.49,1.167,1.167,0,0,1,.06-.39,2.178,2.178,0,0,0,.158-.37c.035-.12.239-.21.6-.28m6.816,14.5-.494.16c-.1.47-.2.94-.273,1.42h-.432l-.162.33a2.319,2.319,0,0,1-.771,0v-.66h-.59l-.168.33h-.6v.33c-.107,0-.158-.12-.158-.33h-.439v.33h-.495v-.33q-.981.06-1.525.06a1.984,1.984,0,0,1-.6-.06c-.076-.22-.17-.33-.277-.33v-.87h-.432v.27h-.658v.6h-.547l-.375.66c-.328-.07-.513-.07-.545,0v.22a4.082,4.082,0,0,1-1.039.11c-.211,0-.566-.02-1.035-.06s-.8-.05-.98-.05v.16a.143.143,0,0,1-.161.16v-.32h-1.035c-.476-.37-.922-.72-1.34-1.07a3.69,3.69,0,0,1-.625-.57v-.49l-.65-.44v-.92h-.281l-.324-1.15h-.27l.27-.16a6.061,6.061,0,0,1-.213-1.39c-.043-.57-.057-1.17-.057-1.83h-.324c.1-.03.215-.07.324-.1v-.81a6.1,6.1,0,0,1,.057-.87,3.472,3.472,0,0,0-.057-.73h-.324v-.54a1.5,1.5,0,0,1-.281-.16h.6v-2.98l.434-.22v-1.03l.328-.1v-.82l.549-.43a6.129,6.129,0,0,0,.107-.79,1.69,1.69,0,0,1,.268-.89.43.43,0,0,1,.384-.16.826.826,0,0,0,.491-.11l.6-.92a1.43,1.43,0,0,0,.6,0l.324-.65h.6l.33-.61a1.927,1.927,0,0,1,.765-.1,1.7,1.7,0,0,0,.754-.12l.276-.65a1.373,1.373,0,0,0,.6,0v-.6a1.13,1.13,0,0,0,.594,0,.884.884,0,0,1,.385-.6,1.743,1.743,0,0,1,.549-.32v-.27h.267a3.74,3.74,0,0,1,0-.93c.223.1.44.22.658.33a5.419,5.419,0,0,1-.158-1.04,5.223,5.223,0,0,0-.166-1.42h.592v-.27h.33c-.111-.11-.223-.22-.33-.32v.32a1.765,1.765,0,0,0-.592,0v-.59a.614.614,0,0,0-.334-.61v-.32l-1.2-.34c-.031.23-.119.34-.266.34v-.34a.543.543,0,0,0-.328.34,5.214,5.214,0,0,0-1.146,0,2.411,2.411,0,0,0-.051.54c0,.15-.106.26-.326.32v.34a.552.552,0,0,1,.326.59h-.326v1.26a2.307,2.307,0,0,0,.043.54.876.876,0,0,1,.283.66h-.326v1.15c-.188.11-.28.21-.28.32h-1.525c-.066.22-.127.41-.164.6-.357-.07-.615-.12-.758-.15-.035-.21-.076-.41-.107-.62a3.272,3.272,0,0,0-.656-.11,5.381,5.381,0,0,0-.981.14,5.5,5.5,0,0,1-.984.14,1.168,1.168,0,0,1-.6-.11c-.072-.19-.16-.28-.268-.28,0-.58-.021-1.18-.056-1.81s-.08-1.24-.117-1.87a6.747,6.747,0,0,1,.173-1.65h.268v-.93h.164c.07-.11.145-.22.219-.33v-.22a.953.953,0,0,1,.375-.82,1.94,1.94,0,0,1-.16-.43,2.667,2.667,0,0,0,.441-.16v-.44l.93-.93h.429a.326.326,0,0,0,.116-.21,3.036,3.036,0,0,1,.049-.44h.927v-.27l1.2-.27v-.34h.922q.054-.33.162-.33a1.692,1.692,0,0,1,.715.16,1.3,1.3,0,0,0,.649.17v-.33h4.092v.33h1.2v.34a4.107,4.107,0,0,0,.492.05,3.057,3.057,0,0,1,.768.22c.068.24.119.43.158.54a.345.345,0,0,0,.269.22h.772l.267,1.09a2.194,2.194,0,0,1,.659.44v.76l.271.16v2.08h.594c-.143.61-.236,1.01-.274,1.19a7.991,7.991,0,0,0-.05.99h.324a2.369,2.369,0,0,1-.166.87,2.625,2.625,0,0,0-.158.92h.324l-.166,4.42.439.11v.43a3.274,3.274,0,0,1-.1.65l-.336.17a.494.494,0,0,0,.117.38c.07.07.143.15.219.22a7.423,7.423,0,0,1,.049,1.03c0,.4,0,.76-.026,1.07s-.023.57-.023.79h-.336a.824.824,0,0,0,.117.49c.07.07.143.14.219.22a10.656,10.656,0,0,1,.1,1.2c0,.43-.015.9-.054,1.41s-.049.8-.049.87a1.671,1.671,0,0,0-.278.12,4.257,4.257,0,0,0,.278.82h-.336v1.03h.336v.65h.32a4.342,4.342,0,0,1,.115,1.14,14.806,14.806,0,0,1-.115,1.48,15.184,15.184,0,0,0-.105,1.53,6.851,6.851,0,0,0,.105.97h.277Z" transform="translate(0 1343.059)"/>
    <path id="Path_38" data-name="Path 38" class="cls-1" d="M74.731-1244.12h1.032l-2.543,8.26H72.13l-2.559-8.26H70.7l1.793,5.77.234.84.207-.83Z" transform="translate(0 1343.059)"/>
    <path id="Path_39" data-name="Path 39" class="cls-1" d="M83.439-1235.86v-.82h1.814v-6.61H83.439v-.83h4.7v.83H86.327v6.61h1.814v.82Z" transform="translate(0 1343.059)"/>
    <path id="Path_40" data-name="Path 40" class="cls-1" d="M97.662-1238.87v3.01H96.588v-8.26h2.053a4.417,4.417,0,0,1,1.846.29,2.036,2.036,0,0,1,.889.83,2.468,2.468,0,0,1,.308,1.23,2.776,2.776,0,0,1-.415,1.47,2.767,2.767,0,0,1-1.157,1.06,4.514,4.514,0,0,1-2.013.37Zm0-.82h.463a3.288,3.288,0,0,0,1.479-.26,1.748,1.748,0,0,0,.745-.75,2.152,2.152,0,0,0,.261-1.04,1.439,1.439,0,0,0-.466-1.13,2.861,2.861,0,0,0-1.838-.42h-.644Z" transform="translate(0 1343.059)"/>
    <path id="Path_41" data-name="Path 41" class="cls-1" d="M109.987-1235.86h-1.032l2.543-8.26h1.09l2.559,8.26h-1.133l-.564-1.81h-2.9Zm.814-2.64h2.41l-.995-3.13-.234-.83-.207.83Z" transform="translate(0 1343.059)"/>
    <path id="Path_42" data-name="Path 42" class="cls-1" d="M127.243-1244.12h1.032l-2.543,8.26h-1.09l-2.559-8.26h1.133l1.793,5.77.234.84.207-.83Z" transform="translate(0 1343.059)"/>
    <path id="Path_43" data-name="Path 43" class="cls-1" d="M135.871-1236.04v-1.01a5.4,5.4,0,0,0,2.319.61,2.168,2.168,0,0,0,.835-.17,1.279,1.279,0,0,0,.6-.48,1.213,1.213,0,0,0,.205-.68,1.321,1.321,0,0,0-.282-.81,3.615,3.615,0,0,0-1.059-.82l-.543-.32-.547-.31a2.476,2.476,0,0,1-1.447-2.13,2.09,2.09,0,0,1,.646-1.56,2.758,2.758,0,0,1,2.019-.64,5.439,5.439,0,0,1,1.707.26v.92a4.8,4.8,0,0,0-1.771-.36,1.606,1.606,0,0,0-1.109.37,1.1,1.1,0,0,0-.423.87,1.149,1.149,0,0,0,.324.84,3.741,3.741,0,0,0,.83.62l.415.25.516.31.436.26a2.4,2.4,0,0,1,1.357,2.08,2.2,2.2,0,0,1-.7,1.64,3.08,3.08,0,0,1-2.234.69,5.608,5.608,0,0,1-.934-.08A7.922,7.922,0,0,1,135.871-1236.04Z" transform="translate(0 1343.059)"/>
    <path id="Path_44" data-name="Path 44" class="cls-1" d="M149-1235.86v-8.26h1.075v4.05l3.069-4.05h1.139l-2.963,3.92,3.378,4.34H153.35l-3.277-4.21v4.21Z" transform="translate(0 1343.059)"/>
    <path id="Path_45" data-name="Path 45" class="cls-1" d="M162.5-1235.86h-1.032l2.542-8.26H165.1l2.559,8.26h-1.133l-.564-1.81h-2.9Zm.814-2.64h2.409l-.994-3.13-.235-.83-.207.83Z" transform="translate(0 1343.059)"/>
    <path id="Path_46" data-name="Path 46" class="cls-1" d="M188.371-1235.86v-8.26h1.957a3.411,3.411,0,0,1,2.008.48,2.772,2.772,0,0,1,.987,1.42,6.843,6.843,0,0,1,.33,2.25,6.142,6.142,0,0,1-.349,2.17,3.249,3.249,0,0,1-.986,1.44,3.243,3.243,0,0,1-1.99.5Zm1.074-.91h.718a2.434,2.434,0,0,0,1.556-.39,2.148,2.148,0,0,0,.665-1.07,7.2,7.2,0,0,0,.2-1.91,5.486,5.486,0,0,0-.234-1.82,2.131,2.131,0,0,0-.671-.98,2.32,2.32,0,0,0-1.431-.35h-.8Z" transform="translate(0 1343.059)"/>
    <path id="Path_47" data-name="Path 47" class="cls-1" d="M203.94-1235.61a2.378,2.378,0,0,1-2.146-1.18,5.991,5.991,0,0,1-.742-3.2,5.978,5.978,0,0,1,.742-3.19,2.378,2.378,0,0,1,2.146-1.18,2.378,2.378,0,0,1,2.149,1.18,6,6,0,0,1,.74,3.19,6.01,6.01,0,0,1-.74,3.2A2.378,2.378,0,0,1,203.94-1235.61Zm0-.83a1.5,1.5,0,0,0,1.295-.88,5.407,5.407,0,0,0,.519-2.67,5.406,5.406,0,0,0-.519-2.67,1.515,1.515,0,0,0-1.295-.88,1.516,1.516,0,0,0-1.295.88,5.406,5.406,0,0,0-.519,2.67,5.407,5.407,0,0,0,.519,2.67A1.5,1.5,0,0,0,203.94-1236.44Z" transform="translate(0 1343.059)"/>
    <path id="Path_48" data-name="Path 48" class="cls-1" d="M219.425-1236.77v.91h-4.458v-8.26h1.074v7.35Z" transform="translate(0 1343.059)"/>
    <path id="Path_49" data-name="Path 49" class="cls-1" d="M227.845-1235.86v-.82h1.814v-6.61h-1.814v-.83h4.7v.83h-1.814v6.61h1.814v.82Z" transform="translate(0 1343.059)"/>
    <path id="Path_50" data-name="Path 50" class="cls-1" d="M241.717-1235.86h-.989v-8.26h.968l2.92,5.5.32.82h.026l-.026-.82v-5.5h.989v8.26h-.989l-2.841-5.4-.4-.87.021.86Z" transform="translate(0 1343.059)"/>
    <path id="Path_51" data-name="Path 51" class="cls-1" d="M254.393-1235.86h-1.032l2.543-8.26h1.09l2.559,8.26H258.42l-.564-1.81h-2.9Zm.814-2.64h2.41l-.995-3.13-.234-.83-.208.83Z" transform="translate(0 1343.059)"/>
    <path id="Path_52" data-name="Path 52" class="cls-1" d="M178.735-1238.49a1.24,1.24,0,0,1-1.248,1.24,1.241,1.241,0,0,1-1.248-1.24,1.249,1.249,0,0,1,1.248-1.25,1.248,1.248,0,0,1,1.248,1.25" transform="translate(0 1343.059)"/>
  </g>
</svg>
